<svg version="1.1" id="Layer_1" xmlns="http://www.w3.org/2000/svg" xmlns:xlink="http://www.w3.org/1999/xlink" x="0px" y="0px"
	 width="100%" viewBox="0 0 426 386" enable-background="new 0 0 426 386" xml:space="preserve">
<path fill="#000101" opacity="1.000000" stroke="none" 
	d="
M239.000000,387.000000 
	C159.333328,387.000000 80.166664,387.000000 1.000000,387.000000 
	C1.000000,258.333344 1.000000,129.666672 1.000000,1.000000 
	C143.000000,1.000000 285.000000,1.000000 427.000000,1.000000 
	C427.000000,129.666672 427.000000,258.333344 427.000000,387.000000 
	C364.500000,387.000000 302.000000,387.000000 239.000000,387.000000 
M171.297470,266.760315 
	C215.944031,245.681366 260.590607,224.602402 305.872742,203.223343 
	C298.559174,200.900665 291.808838,198.628754 284.964264,196.689606 
	C283.570221,196.294678 281.719055,196.893478 280.253174,197.474503 
	C272.056549,200.723373 263.916870,204.115784 255.751419,207.443604 
	C238.371887,214.526642 220.988464,221.600128 203.447357,228.742386 
	C202.322693,227.154312 201.330887,225.833633 200.421707,224.458359 
	C175.713440,187.084152 150.871429,149.797134 126.395988,112.271019 
	C118.700851,100.472717 113.827080,87.286644 111.334702,73.383507 
	C109.066277,60.729576 113.379295,57.174763 125.349014,61.384529 
	C125.505936,61.439716 125.653671,61.521004 125.810547,61.576351 
	C171.802216,77.803398 217.849625,93.875107 263.754578,110.343781 
	C278.597748,115.668854 293.067139,122.035919 307.696259,127.921806 
	C307.349182,130.084702 307.107727,131.367996 306.941376,132.660965 
	C305.664581,142.583267 308.372101,151.215271 315.790161,158.009262 
	C326.323578,167.656494 341.855988,167.948685 352.857574,158.961060 
	C363.665070,150.131989 366.325348,134.305908 359.009216,122.364426 
	C351.643433,110.341888 336.793304,105.677124 323.609406,111.011673 
	C321.742523,111.767075 318.926697,112.232147 317.358978,111.366562 
	C289.880249,96.194702 261.063019,83.998840 231.577820,73.488602 
	C198.836899,61.817852 165.836044,50.860924 132.798981,40.049706 
	C126.450089,37.972057 119.412918,37.258705 112.687691,37.230118 
	C100.257324,37.177277 92.747559,43.698708 90.163231,55.705452 
	C89.466949,58.940346 89.336060,62.302338 89.022026,65.613235 
	C86.967850,87.270538 95.431618,105.415718 107.165001,122.879669 
	C128.145813,154.107483 148.550262,185.723480 169.083847,217.250015 
	C173.582779,224.157501 177.613052,231.370224 182.071091,238.795380 
	C165.569763,246.982285 149.700195,255.037369 133.639481,262.691376 
	C129.808945,264.516907 125.398193,265.412628 121.152039,266.014465 
	C113.839088,267.050964 109.730736,263.724976 110.058823,256.285095 
	C110.393349,248.699203 112.031769,241.174362 113.017029,233.612076 
	C113.486687,230.007248 115.102135,228.466843 119.024132,228.038696 
	C131.988220,226.623474 141.627350,216.485428 143.271011,203.272568 
	C144.831787,190.725922 137.500702,178.525772 125.585358,173.840714 
	C113.507057,169.091583 99.842674,173.088333 92.196968,183.606613 
	C84.782013,193.807449 85.056877,208.244034 93.335388,217.903732 
	C95.558090,220.497284 95.617523,222.503098 94.718643,225.436417 
	C91.234825,236.805191 88.897331,248.324219 90.900703,260.332672 
	C93.063995,273.299744 101.420906,282.346191 114.044037,283.618164 
	C120.387695,284.257355 127.365486,284.266205 133.286194,282.272491 
	C145.996262,277.992676 158.206604,272.228851 171.297470,266.760315 
M195.064529,101.144104 
	C183.815308,98.113205 173.769516,100.290611 165.839569,108.955711 
	C155.312485,120.458717 155.864014,137.320175 166.666931,148.216125 
	C177.373627,159.015060 194.210327,159.311264 205.901978,148.716415 
	C207.804901,146.991989 209.168076,146.099457 211.882950,147.083008 
	C241.307587,157.742874 270.815430,168.173233 300.234131,178.849365 
	C309.217926,182.109634 317.570068,186.659531 324.157379,193.813934 
	C329.724182,199.859985 332.592194,206.855286 331.106598,215.265503 
	C329.210297,226.000961 323.295563,233.764709 313.904633,239.080414 
	C262.984680,267.903229 209.675751,291.677307 155.734634,314.139069 
	C151.154984,316.046112 148.486710,315.952576 145.074432,311.577026 
	C136.954514,301.164795 123.467102,298.509583 111.758530,303.990692 
	C99.965416,309.511414 93.739082,321.971375 96.006813,335.512512 
	C97.927544,346.981598 108.935577,356.710327 121.189438,357.768585 
	C134.166489,358.889282 145.832764,351.270203 150.585663,339.029541 
	C151.316010,337.148651 153.550446,335.341919 155.514282,334.533813 
	C167.040787,329.790771 178.836777,325.684265 190.263046,320.721191 
	C201.553116,315.817261 212.529785,310.187683 223.613647,304.813995 
	C251.762360,291.167023 280.162628,278.003326 307.928802,263.616730 
	C323.795624,255.395584 338.083130,244.512192 348.154388,229.168533 
	C355.666382,217.723938 358.453491,205.613678 351.658569,192.872955 
	C346.047668,182.352203 337.432220,174.774292 326.287384,170.609879 
	C290.604431,157.276459 254.826477,144.197281 219.081085,131.031097 
	C216.940414,130.242615 214.952698,129.939972 214.703079,126.663055 
	C213.767502,114.381554 207.336563,105.941887 195.064529,101.144104 
z"/>
<path fill="#61DDE1" opacity="1.000000" stroke="none" 
	d="
M170.959503,266.916443 
	C158.206604,272.228851 145.996262,277.992676 133.286194,282.272491 
	C127.365486,284.266205 120.387695,284.257355 114.044037,283.618164 
	C101.420906,282.346191 93.063995,273.299744 90.900703,260.332672 
	C88.897331,248.324219 91.234825,236.805191 94.718643,225.436417 
	C95.617523,222.503098 95.558090,220.497284 93.335388,217.903732 
	C85.056877,208.244034 84.782013,193.807449 92.196968,183.606613 
	C99.842674,173.088333 113.507057,169.091583 125.585358,173.840714 
	C137.500702,178.525772 144.831787,190.725922 143.271011,203.272568 
	C141.627350,216.485428 131.988220,226.623474 119.024132,228.038696 
	C115.102135,228.466843 113.486687,230.007248 113.017029,233.612076 
	C112.031769,241.174362 110.393349,248.699203 110.058823,256.285095 
	C109.730736,263.724976 113.839088,267.050964 121.152039,266.014465 
	C125.398193,265.412628 129.808945,264.516907 133.639481,262.691376 
	C149.700195,255.037369 165.569763,246.982285 182.071091,238.795380 
	C177.613052,231.370224 173.582779,224.157501 169.083847,217.250015 
	C148.550262,185.723480 128.145813,154.107483 107.165001,122.879669 
	C95.431618,105.415718 86.967850,87.270538 89.022026,65.613235 
	C89.336060,62.302338 89.466949,58.940346 90.163231,55.705452 
	C92.747559,43.698708 100.257324,37.177277 112.687691,37.230118 
	C119.412918,37.258705 126.450089,37.972057 132.798981,40.049706 
	C165.836044,50.860924 198.836899,61.817852 231.577820,73.488602 
	C261.063019,83.998840 289.880249,96.194702 317.358978,111.366562 
	C318.926697,112.232147 321.742523,111.767075 323.609406,111.011673 
	C336.793304,105.677124 351.643433,110.341888 359.009216,122.364426 
	C366.325348,134.305908 363.665070,150.131989 352.857574,158.961060 
	C341.855988,167.948685 326.323578,167.656494 315.790161,158.009262 
	C308.372101,151.215271 305.664581,142.583267 306.941376,132.660965 
	C307.107727,131.367996 307.349182,130.084702 307.696259,127.921806 
	C293.067139,122.035919 278.597748,115.668854 263.754578,110.343781 
	C217.849625,93.875107 171.802216,77.803398 125.810547,61.576351 
	C125.653671,61.521004 125.505936,61.439716 125.349014,61.384529 
	C113.379295,57.174763 109.066277,60.729576 111.334702,73.383507 
	C113.827080,87.286644 118.700851,100.472717 126.395988,112.271019 
	C150.871429,149.797134 175.713440,187.084152 200.421707,224.458359 
	C201.330887,225.833633 202.322693,227.154312 203.447357,228.742386 
	C220.988464,221.600128 238.371887,214.526642 255.751419,207.443604 
	C263.916870,204.115784 272.056549,200.723373 280.253174,197.474503 
	C281.719055,196.893478 283.570221,196.294678 284.964264,196.689606 
	C291.808838,198.628754 298.559174,200.900665 305.872742,203.223343 
	C260.590607,224.602402 215.944031,245.681366 170.959503,266.916443 
M343.603546,130.033371 
	C337.401123,124.341263 329.596130,124.671021 325.530823,130.796951 
	C322.473358,135.404114 323.206451,141.603729 327.255066,145.378403 
	C331.152130,149.011795 337.133942,149.352509 341.465912,146.187851 
	C346.441284,142.553177 347.354340,137.083694 343.603546,130.033371 
M123.675400,192.847855 
	C118.314331,188.111526 112.616966,187.621170 107.985924,191.497513 
	C103.419281,195.319977 102.612633,201.995529 106.139305,206.779755 
	C109.687042,211.592560 116.190964,212.797028 121.249252,209.577972 
	C126.713928,206.100311 127.822037,199.951706 123.675400,192.847855 
z"/>
<path fill="#D4D5D5" opacity="1.000000" stroke="none" 
	d="
M195.433014,101.307793 
	C207.336563,105.941887 213.767502,114.381554 214.703079,126.663055 
	C214.952698,129.939972 216.940414,130.242615 219.081085,131.031097 
	C254.826477,144.197281 290.604431,157.276459 326.287384,170.609879 
	C337.432220,174.774292 346.047668,182.352203 351.658569,192.872955 
	C358.453491,205.613678 355.666382,217.723938 348.154388,229.168533 
	C338.083130,244.512192 323.795624,255.395584 307.928802,263.616730 
	C280.162628,278.003326 251.762360,291.167023 223.613647,304.813995 
	C212.529785,310.187683 201.553116,315.817261 190.263046,320.721191 
	C178.836777,325.684265 167.040787,329.790771 155.514282,334.533813 
	C153.550446,335.341919 151.316010,337.148651 150.585663,339.029541 
	C145.832764,351.270203 134.166489,358.889282 121.189438,357.768585 
	C108.935577,356.710327 97.927544,346.981598 96.006813,335.512512 
	C93.739082,321.971375 99.965416,309.511414 111.758530,303.990692 
	C123.467102,298.509583 136.954514,301.164795 145.074432,311.577026 
	C148.486710,315.952576 151.154984,316.046112 155.734634,314.139069 
	C209.675751,291.677307 262.984680,267.903229 313.904633,239.080414 
	C323.295563,233.764709 329.210297,226.000961 331.106598,215.265503 
	C332.592194,206.855286 329.724182,199.859985 324.157379,193.813934 
	C317.570068,186.659531 309.217926,182.109634 300.234131,178.849365 
	C270.815430,168.173233 241.307587,157.742874 211.882950,147.083008 
	C209.168076,146.099457 207.804901,146.991989 205.901978,148.716415 
	C194.210327,159.311264 177.373627,159.015060 166.666931,148.216125 
	C155.864014,137.320175 155.312485,120.458717 165.839569,108.955711 
	C173.769516,100.290611 183.815308,98.113205 195.433014,101.307793 
M124.330330,340.868591 
	C130.969162,339.548645 134.352448,336.358856 134.945450,330.860565 
	C135.469635,326.000336 133.008102,321.475616 128.652191,319.466156 
	C124.320297,317.467773 120.176826,318.001373 116.532120,320.982117 
	C112.632362,324.171448 111.732048,328.600861 113.058113,333.164673 
	C114.507401,338.152527 118.414505,340.503113 124.330330,340.868591 
M177.150864,121.824417 
	C174.556015,126.267166 174.574478,130.704819 177.596085,134.870117 
	C180.115204,138.342758 183.673950,139.930069 188.005447,139.318985 
	C193.125671,138.596619 196.740799,135.062088 197.699936,129.995880 
	C198.545151,125.531410 196.068100,120.463806 191.963455,118.260132 
	C187.085022,115.641014 182.400497,116.612335 177.150864,121.824417 
z"/>
<path fill="#020909" opacity="1.000000" stroke="none" 
	d="
M343.831421,130.343155 
	C347.354340,137.083694 346.441284,142.553177 341.465912,146.187851 
	C337.133942,149.352509 331.152130,149.011795 327.255066,145.378403 
	C323.206451,141.603729 322.473358,135.404114 325.530823,130.796951 
	C329.596130,124.671021 337.401123,124.341263 343.831421,130.343155 
z"/>
<path fill="#020909" opacity="1.000000" stroke="none" 
	d="
M123.918945,193.130524 
	C127.822037,199.951706 126.713928,206.100311 121.249252,209.577972 
	C116.190964,212.797028 109.687042,211.592560 106.139305,206.779755 
	C102.612633,201.995529 103.419281,195.319977 107.985924,191.497513 
	C112.616966,187.621170 118.314331,188.111526 123.918945,193.130524 
z"/>
<path fill="#060909" opacity="1.000000" stroke="none" 
	d="
M123.929596,340.869812 
	C118.414505,340.503113 114.507401,338.152527 113.058113,333.164673 
	C111.732048,328.600861 112.632362,324.171448 116.532120,320.982117 
	C120.176826,318.001373 124.320297,317.467773 128.652191,319.466156 
	C133.008102,321.475616 135.469635,326.000336 134.945450,330.860565 
	C134.352448,336.358856 130.969162,339.548645 123.929596,340.869812 
z"/>
<path fill="#060909" opacity="1.000000" stroke="none" 
	d="
M177.389465,121.528450 
	C182.400497,116.612335 187.085022,115.641014 191.963455,118.260132 
	C196.068100,120.463806 198.545151,125.531410 197.699936,129.995880 
	C196.740799,135.062088 193.125671,138.596619 188.005447,139.318985 
	C183.673950,139.930069 180.115204,138.342758 177.596085,134.870117 
	C174.574478,130.704819 174.556015,126.267166 177.389465,121.528450 
z"/>
</svg>